<svg width="148" height="26" viewBox="0 0 148 26" fill="none" xmlns="http://www.w3.org/2000/svg">
<path fill-rule="evenodd" clip-rule="evenodd" d="M51.6907 19.5387C52.7547 20.1547 53.94 20.4627 55.2467 20.4627C56.5533 20.4627 57.7387 20.1547 58.8027 19.5387C59.8667 18.9227 60.7036 18.0796 61.3133 17.0093C61.9231 15.9391 62.228 14.7631 62.228 13.4813C62.228 12.1995 61.9231 11.0236 61.3133 9.95333C60.7036 8.88311 59.8667 8.04 58.8027 7.424C57.7387 6.808 56.5533 6.5 55.2467 6.5C53.94 6.5 52.7547 6.808 51.6907 7.424C50.6267 8.04 49.7898 8.88311 49.18 9.95333C48.5702 11.0236 48.2653 12.1995 48.2653 13.4813C48.2653 14.7631 48.5702 15.9391 49.18 17.0093C49.7898 18.0796 50.6267 18.9227 51.6907 19.5387ZM42.2267 6.79867H37V20.164H42.4133C43.2222 20.164 43.9596 20.0116 44.6253 19.7067C45.2911 19.4018 45.82 18.9662 46.212 18.4C46.604 17.8338 46.8 17.1836 46.8 16.4493C46.8 15.6902 46.5947 15.04 46.184 14.4987C45.7733 13.9573 45.2196 13.5622 44.5227 13.3133V13.164C45.0578 12.9027 45.4902 12.5262 45.82 12.0347C46.1498 11.5431 46.3147 10.9613 46.3147 10.2893C46.3147 9.65466 46.1342 9.06978 45.7733 8.53467C45.4124 7.99955 44.9178 7.57645 44.2893 7.26533C43.6609 6.95422 42.9733 6.79867 42.2267 6.79867ZM43.356 11.792C43.0262 12.0969 42.5876 12.2493 42.04 12.2493H39.52V9.05733H42.1147C42.6373 9.05733 43.0573 9.20978 43.3747 9.51467C43.692 9.81956 43.8507 10.196 43.8507 10.644C43.8507 11.1044 43.6858 11.4871 43.356 11.792ZM42.32 17.868C42.9298 17.868 43.4058 17.7093 43.748 17.392C44.0902 17.0747 44.2613 16.6609 44.2613 16.1507C44.2613 15.6404 44.0871 15.2236 43.7387 14.9C43.3902 14.5764 42.8924 14.4147 42.2453 14.4147H39.52V17.868H42.32ZM55.2467 18.0733C56.068 18.0733 56.8209 17.8804 57.5053 17.4947C58.1898 17.1089 58.728 16.5676 59.12 15.8707C59.512 15.1738 59.708 14.3773 59.708 13.4813C59.708 12.5853 59.512 11.7889 59.12 11.092C58.728 10.3951 58.1898 9.85378 57.5053 9.468C56.8209 9.08222 56.068 8.88933 55.2467 8.88933C54.4253 8.88933 53.6756 9.08222 52.9973 9.468C52.3191 9.85378 51.784 10.3951 51.392 11.092C51 11.7889 50.804 12.5853 50.804 13.4813C50.804 14.3773 51 15.1738 51.392 15.8707C51.784 16.5676 52.3191 17.1089 52.9973 17.4947C53.6756 17.8804 54.4253 18.0733 55.2467 18.0733ZM67.044 19.5387C68.108 20.1547 69.2933 20.4627 70.6 20.4627C71.9067 20.4627 73.092 20.1547 74.156 19.5387C75.22 18.9227 76.0569 18.0796 76.6667 17.0093C77.2764 15.9391 77.5813 14.7631 77.5813 13.4813C77.5813 12.1995 77.2764 11.0236 76.6667 9.95333C76.0569 8.88311 75.22 8.04 74.156 7.424C73.092 6.808 71.9067 6.5 70.6 6.5C69.2933 6.5 68.108 6.808 67.044 7.424C65.98 8.04 65.1431 8.88311 64.5333 9.95333C63.9236 11.0236 63.6187 12.1995 63.6187 13.4813C63.6187 14.7631 63.9236 15.9391 64.5333 17.0093C65.1431 18.0796 65.98 18.9227 67.044 19.5387ZM70.6 18.0733C71.4213 18.0733 72.1742 17.8804 72.8587 17.4947C73.5431 17.1089 74.0813 16.5676 74.4733 15.8707C74.8653 15.1738 75.0613 14.3773 75.0613 13.4813C75.0613 12.5853 74.8653 11.7889 74.4733 11.092C74.0813 10.3951 73.5431 9.85378 72.8587 9.468C72.1742 9.08222 71.4213 8.88933 70.6 8.88933C69.7787 8.88933 69.0289 9.08222 68.3507 9.468C67.6724 9.85378 67.1373 10.3951 66.7453 11.092C66.3533 11.7889 66.1573 12.5853 66.1573 13.4813C66.1573 14.3773 66.3533 15.1738 66.7453 15.8707C67.1373 16.5676 67.6724 17.1089 68.3507 17.4947C69.0289 17.8804 69.7787 18.0733 70.6 18.0733ZM82.3507 6.79867H79.8307V20.164H82.3507V16.244L83.8627 14.4707L87.8573 20.164H90.9373V20.0147L85.5987 12.4733L90.4333 6.948V6.79867H87.3907L82.5 12.5293H82.3507V6.79867ZM93.7778 6.5H97.0258L100.572 15.8893H100.722L104.268 6.5H107.535V19.8653H105.034V13.276L105.183 11.0547H105.034L101.636 19.8653H99.6764L96.2604 11.0547H96.1111L96.2604 13.276V19.8653H93.7778V6.5ZM117.472 6.5H114.579L109.576 19.8653H112.357L113.477 16.6733H118.592L119.712 19.8653H122.493L117.472 6.5ZM117.771 14.3587L116.595 10.9987L116.109 9.39333H115.96L115.475 10.9987L114.28 14.3587H117.771ZM129.425 6.5H124.553V19.8653H127.073V14.844H128.249L131.702 19.8653H134.596V19.716L131.012 14.5827L131.03 14.452C131.852 14.1533 132.533 13.6711 133.074 13.0053C133.616 12.3396 133.886 11.5773 133.886 10.7187C133.886 9.90977 133.7 9.18489 133.326 8.544C132.953 7.90311 132.427 7.40222 131.749 7.04133C131.071 6.68044 130.296 6.5 129.425 6.5ZM129.406 12.5293C129.979 12.5293 130.445 12.3551 130.806 12.0067C131.167 11.6582 131.348 11.2164 131.348 10.6813C131.348 10.1711 131.176 9.73556 130.834 9.37467C130.492 9.01378 130.028 8.83333 129.444 8.83333H127.073V12.5293H129.406ZM139.156 6.5H136.636V19.8653H139.156V15.9453L140.668 14.172L144.663 19.8653H147.743V19.716L142.404 12.1747L147.239 6.64933V6.5H144.196L139.306 12.2307H139.156V6.5Z" fill="white"/>
<circle cx="12.5" cy="13" r="12.5" fill="#5267DF"/>
<path fill-rule="evenodd" clip-rule="evenodd" d="M11 7.5C9.89543 7.5 9 8.39543 9 9.5V19.5L12.5395 16.0609L16.0789 19.5V9.5C16.0789 8.39543 15.1835 7.5 14.0789 7.5H11Z" fill="white"/>
</svg>
